# Blender 3.4.0
# www.blender.org
mtllib Roof corner.mtl
o Cube.008
v 0.100000 0.625000 -0.100000
v 0.100000 0.775000 -0.100000
v -0.000000 0.775000 -0.100000
v -0.000000 0.625000 -0.100000
v 0.100000 0.625000 0.000000
v 0.100000 0.775000 0.000000
v -0.000000 0.625000 0.000000
v -0.000000 0.775000 0.000000
vn -0.0000 -0.0000 -1.0000
vn 1.0000 -0.0000 -0.0000
vn -0.0000 -1.0000 -0.0000
vn -0.0000 1.0000 -0.0000
vn -1.0000 -0.0000 -0.0000
vn -0.0000 -0.0000 1.0000
vt -0.033333 -0.514000
vt 1.000000 -0.514000
vt -0.033333 1.000000
vt -0.033333 0.486000
vt 1.000000 0.486000
vt 0.033333 1.000000
vt -0.016667 0.486000
vt 0.016667 1.000000
vt 0.033333 0.041556
vt -0.016667 -0.514000
vt -0.016667 1.000000
vt 0.033333 -0.069556
vt 0.966667 -0.514000
vt -0.033333 0.966667
vt -0.017361 -0.035739
vt 0.966667 0.486000
vt 0.033333 0.966667
vt -0.017361 0.007739
vt -0.016667 0.966667
vt 0.033333 -0.069556
vt -0.008681 -0.035739
vt 0.016667 0.966667
vt 0.033333 0.041556
vt -0.008681 0.007739
s 0
usemtl Material.004
f 2/4/1 1/1/1 4/10/1 3/7/1
f 1/2/2 2/5/2 6/16/2 5/13/2
f 7/19/3 4/11/3 1/3/3 5/14/3
f 6/17/4 2/6/4 3/8/4 8/22/4
f 3/9/5 4/12/5 7/20/5 8/23/5
f 7/21/6 5/15/6 6/18/6 8/24/6
