# Blender 3.4.0
# www.blender.org
mtllib Window level 1.mtl
o Cube
v 0.000000 0.000000 3.000000
v 0.000000 3.000000 3.000000
v 0.000000 0.000000 -3.000000
v 0.000000 3.000000 -3.000000
v -0.200000 2.700000 -2.400000
v -0.200000 2.700000 2.400000
v -0.200000 0.000000 2.400000
v -0.200000 0.000000 -2.400000
v 0.000000 2.700000 2.400000
v 0.000000 2.700000 -2.400000
v 0.000000 0.000000 2.400000
v 0.000000 0.000000 -2.400000
vn 1.0000 -0.0000 -0.0000
vn -0.0000 -0.0000 1.0000
vn -0.0000 -0.0000 -1.0000
vn -0.0000 -1.0000 -0.0000
vt -1.000000 -0.514000
vt -1.000000 0.486000
vt 1.000000 -0.514000
vt 1.000000 0.486000
vt -0.033333 0.386000
vt 0.033333 0.800000
vt 0.033333 0.386000
vt 0.033333 -0.800000
vt 0.033333 -0.514000
vt -0.033333 -0.514000
vt -0.800000 0.386000
vt -0.033333 0.386000
vt -0.033333 -0.800000
vt 0.800000 0.386000
vt 0.033333 0.386000
vt -0.033333 0.800000
vt -0.800000 -0.514000
vt -0.033333 -0.514000
vt 0.800000 -0.514000
vt 0.033333 -0.514000
s 0
usemtl Material.002
f 3/3/1 4/4/1 2/2/1 1/1/1 11/17/1 9/11/1 10/14/1 12/19/1
usemtl 
f 12/20/2 10/15/2 5/5/2 8/10/2
f 6/7/3 9/12/3 11/18/3 7/9/3
f 5/6/4 10/16/4 9/13/4 6/8/4
o Cube.001
v -0.150000 0.000000 2.400000
v -0.150000 2.700000 2.400000
v -0.150000 0.000000 -2.400000
v -0.150000 2.700000 -2.400000
v -0.050000 0.000000 2.400000
v -0.050000 2.700000 2.400000
v -0.050000 0.000000 -2.400000
v -0.050000 2.700000 -2.400000
v -0.150000 2.650000 2.350000
v -0.150000 0.000000 2.350000
v -0.150000 0.000000 -2.350000
v -0.150000 2.650000 -2.350000
v -0.050000 2.650000 -2.350000
v -0.050000 0.000000 2.350000
v -0.050000 0.000000 -2.350000
v -0.050000 2.650000 2.350000
vn -1.0000 -0.0000 -0.0000
vn 1.0000 -0.0000 -0.0000
vn -0.0000 -0.0000 1.0000
vn -0.0000 -0.0000 -1.0000
vn -0.0000 -1.0000 -0.0000
vt 0.375000 0.000000
vt 0.625000 0.000000
vt 0.375000 0.250000
vt 0.625000 0.250000
vt 0.375000 0.750000
vt 0.625000 0.750000
vt 0.375000 0.500000
vt 0.625000 0.500000
vt 0.620370 0.002604
vt 0.625000 0.881250
vt 0.756250 0.750000
vt 0.375000 0.002604
vt 0.388393 0.881250
vt 0.375000 0.247396
vt 0.388393 0.368750
vt 0.620370 0.247396
vt 0.625000 0.368750
vt 0.756250 0.500000
vt 0.620370 0.502604
vt 0.625000 0.381250
vt 0.743750 0.500000
vt 0.375000 0.747396
vt 0.388393 0.868750
vt 0.375000 0.502604
vt 0.388393 0.381250
vt 0.620370 0.747396
vt 0.625000 0.868750
vt 0.743750 0.750000
s 0
usemtl Material.003
f 13/21/5 14/22/5 16/24/5 15/23/5 23/34/5 24/36/5 21/29/5 22/32/5
f 27/44/6 19/27/6 20/28/6 18/26/6 17/25/6 26/42/6 28/46/6 25/39/6
f 27/45/7 25/40/7 24/37/7 23/35/7
f 21/30/8 28/47/8 26/43/8 22/33/8
f 21/31/9 24/38/9 25/41/9 28/48/9
o Plane
v -0.100000 2.650000 2.350000
v -0.100000 0.000000 2.350000
v -0.100000 2.650000 -2.350000
v -0.100000 0.000000 -2.350000
vn 1.0000 -0.0000 -0.0000
vt 0.000000 0.000000
vt 1.000000 0.000000
vt 0.000000 1.000000
vt 1.000000 1.000000
s 0
usemtl Material.004
f 29/49/10 30/50/10 32/52/10 31/51/10
