{
	"asset":{
		"generator":"Khronos glTF Blender I/O v4.0.44",
		"version":"2.0"
	},
	"extensionsUsed":[
		"KHR_materials_emissive_strength"
	],
	"scene":0,
	"scenes":[
		{
			"name":"Scene",
			"nodes":[
				0,
				1,
				2,
				3,
				4,
				5,
				6,
				7,
				8
			]
		}
	],
	"nodes":[
		{
			"mesh":0,
			"name":"Cube.007",
			"translation":[
				0,
				1.0724012851715088,
				0.181609645485878
			]
		},
		{
			"mesh":1,
			"name":"Cube.008",
			"translation":[
				0,
				1.0724012851715088,
				0.20899216830730438
			]
		},
		{
			"mesh":2,
			"name":"Cube.009",
			"translation":[
				0,
				1.1566290855407715,
				0.186814546585083
			]
		},
		{
			"mesh":3,
			"name":"Icosphere.002",
			"translation":[
				-0.031457819044589996,
				1.1882834434509277,
				0.22404727339744568
			]
		},
		{
			"mesh":4,
			"name":"Cylinder.016",
			"scale":[
				0.37430673837661743,
				0.37430673837661743,
				0.37430673837661743
			],
			"translation":[
				-0.0416942723095417,
				1.1564937829971313,
				0.22090955078601837
			]
		},
		{
			"mesh":5,
			"name":"Circle.001",
			"rotation":[
				0.7071068286895752,
				0,
				0,
				0.7071068286895752
			],
			"translation":[
				0,
				1.1565412282943726,
				0.2225915640592575
			]
		},
		{
			"mesh":6,
			"name":"Circle.002",
			"rotation":[
				0.7071068286895752,
				0,
				0,
				0.7071068286895752
			],
			"translation":[
				0,
				1.1565412282943726,
				0.2225915640592575
			]
		},
		{
			"mesh":7,
			"name":"Circle.003",
			"translation":[
				0,
				1.1745660305023193,
				0.041083697229623795
			]
		},
		{
			"mesh":8,
			"name":"Circle.004",
			"translation":[
				0,
				0.9073500633239746,
				0.041083697229623795
			]
		}
	],
	"materials":[
		{
			"doubleSided":true,
			"name":"METAL",
			"pbrMetallicRoughness":{
				"baseColorFactor":[
					0.049521345645189285,
					0.05119825154542923,
					0.05141037330031395,
					1
				],
				"roughnessFactor":0.30000030994415283
			}
		},
		{
			"doubleSided":true,
			"name":"PLANES",
			"pbrMetallicRoughness":{
				"baseColorFactor":[
					0.016104143112897873,
					0.019285952672362328,
					0.020791539922356606,
					1
				],
				"roughnessFactor":0.6885714530944824
			}
		},
		{
			"doubleSided":true,
			"name":"METAL LIGHT",
			"pbrMetallicRoughness":{
				"baseColorFactor":[
					0.13361471891403198,
					0.13361471891403198,
					0.13361471891403198,
					1
				],
				"roughnessFactor":0.3571428656578064
			}
		},
		{
			"doubleSided":true,
			"name":"Material.010",
			"pbrMetallicRoughness":{
				"baseColorFactor":[
					0.275434672832489,
					0.2669936418533325,
					0.2669936418533325,
					1
				],
				"roughnessFactor":0.6828571557998657
			}
		},
		{
			"doubleSided":true,
			"name":"Material.013",
			"pbrMetallicRoughness":{
				"baseColorFactor":[
					0.03231657296419144,
					0.033700358122587204,
					0.03411146253347397,
					1
				],
				"roughnessFactor":0.3514285683631897
			}
		},
		{
			"doubleSided":true,
			"emissiveFactor":[
				0.03754347165182326,
				0.013637153534888258,
				0.013637153534888258
			],
			"name":"Material.014",
			"pbrMetallicRoughness":{
				"baseColorFactor":[
					0.13361471891403198,
					0.023123661056160927,
					0.023123661056160927,
					1
				],
				"metallicFactor":0,
				"roughnessFactor":0.5
			}
		},
		{
			"doubleSided":true,
			"emissiveFactor":[
				0.09489974571220294,
				0.0757426108058441,
				0.054451953656938556
			],
			"name":"Material.016",
			"pbrMetallicRoughness":{
				"baseColorFactor":[
					0.2476298063993454,
					0.15269067883491516,
					0.03287861496210098,
					1
				],
				"metallicFactor":0,
				"roughnessFactor":0.5
			}
		},
		{
			"doubleSided":true,
			"emissiveFactor":[
				0.026309459387726553,
				0.031179086297227876,
				0.026618317884838483
			],
			"name":"Material.015",
			"pbrMetallicRoughness":{
				"baseColorFactor":[
					0.06949667632579803,
					0.1787731796503067,
					0.0551036074757576,
					1
				],
				"metallicFactor":0,
				"roughnessFactor":0.5
			}
		},
		{
			"doubleSided":true,
			"emissiveFactor":[
				1,
				0.028130537845048986,
				0.028130537845048986
			],
			"extensions":{
				"KHR_materials_emissive_strength":{
					"emissiveStrength":1.1886148209816128
				}
			},
			"name":"Material.006",
			"pbrMetallicRoughness":{
				"baseColorFactor":[
					0.9285440444946289,
					0.011574056930840015,
					0.011574056930840015,
					1
				],
				"roughnessFactor":0.5
			}
		},
		{
			"doubleSided":true,
			"emissiveFactor":[
				1,
				0.3677762448787689,
				0.0036864103749394417
			],
			"extensions":{
				"KHR_materials_emissive_strength":{
					"emissiveStrength":4.799999713897705
				}
			},
			"name":"Material.008",
			"pbrMetallicRoughness":{
				"baseColorFactor":[
					0.963880717754364,
					0.4261310398578644,
					0.030153030529618263,
					1
				],
				"roughnessFactor":0.5114285945892334
			}
		},
		{
			"doubleSided":true,
			"emissiveFactor":[
				0.02808636166001799,
				0.6968299188943661,
				0.1602407340304346
			],
			"name":"Material.009",
			"pbrMetallicRoughness":{
				"baseColorFactor":[
					0.02480330318212509,
					0.4641382098197937,
					0.052022919058799744,
					1
				],
				"roughnessFactor":0.5
			}
		}
	],
	"meshes":[
		{
			"name":"Cube.013",
			"primitives":[
				{
					"attributes":{
						"POSITION":0,
						"NORMAL":1,
						"TEXCOORD_0":2
					},
					"indices":3,
					"material":0
				}
			]
		},
		{
			"name":"Cube.014",
			"primitives":[
				{
					"attributes":{
						"POSITION":4,
						"NORMAL":5,
						"TEXCOORD_0":6
					},
					"indices":7,
					"material":1
				}
			]
		},
		{
			"name":"Cube.015",
			"primitives":[
				{
					"attributes":{
						"POSITION":8,
						"NORMAL":9,
						"TEXCOORD_0":10
					},
					"indices":11,
					"material":1
				}
			]
		},
		{
			"name":"Icosphere.005",
			"primitives":[
				{
					"attributes":{
						"POSITION":12,
						"NORMAL":13,
						"TEXCOORD_0":14
					},
					"indices":15,
					"material":2
				}
			]
		},
		{
			"name":"Cylinder.001",
			"primitives":[
				{
					"attributes":{
						"POSITION":16,
						"NORMAL":17,
						"TEXCOORD_0":18
					},
					"indices":19,
					"material":2
				},
				{
					"attributes":{
						"POSITION":20,
						"NORMAL":21,
						"TEXCOORD_0":22
					},
					"indices":23,
					"material":3
				}
			]
		},
		{
			"name":"Circle.012",
			"primitives":[
				{
					"attributes":{
						"POSITION":24,
						"NORMAL":25,
						"TEXCOORD_0":26
					},
					"indices":27,
					"material":4
				},
				{
					"attributes":{
						"POSITION":28,
						"NORMAL":29,
						"TEXCOORD_0":30
					},
					"indices":31,
					"material":5
				},
				{
					"attributes":{
						"POSITION":32,
						"NORMAL":33,
						"TEXCOORD_0":34
					},
					"indices":31,
					"material":6
				},
				{
					"attributes":{
						"POSITION":35,
						"NORMAL":36,
						"TEXCOORD_0":37
					},
					"indices":31,
					"material":7
				}
			]
		},
		{
			"name":"Circle.013",
			"primitives":[
				{
					"attributes":{
						"POSITION":38,
						"NORMAL":39,
						"TEXCOORD_0":40
					},
					"indices":41,
					"material":8
				},
				{
					"attributes":{
						"POSITION":42,
						"NORMAL":43,
						"TEXCOORD_0":44
					},
					"indices":41,
					"material":9
				},
				{
					"attributes":{
						"POSITION":45,
						"NORMAL":46,
						"TEXCOORD_0":47
					},
					"indices":41,
					"material":10
				}
			]
		},
		{
			"name":"Circle.004",
			"primitives":[
				{
					"attributes":{
						"POSITION":48,
						"NORMAL":49,
						"TEXCOORD_0":50
					},
					"indices":51,
					"material":0
				}
			]
		},
		{
			"name":"Circle.005",
			"primitives":[
				{
					"attributes":{
						"POSITION":52,
						"NORMAL":53,
						"TEXCOORD_0":54
					},
					"indices":55,
					"material":0
				},
				{
					"attributes":{
						"POSITION":56,
						"NORMAL":57,
						"TEXCOORD_0":58
					},
					"indices":59,
					"material":1
				}
			]
		}
	],
	"accessors":[
		{
			"bufferView":0,
			"componentType":5126,
			"count":660,
			"max":[
				0.04149754345417023,
				0.13131077587604523,
				0.023948563262820244
			],
			"min":[
				-0.04149754345417023,
				-0.13131077587604523,
				-0.02394862286746502
			],
			"type":"VEC3"
		},
		{
			"bufferView":1,
			"componentType":5126,
			"count":660,
			"type":"VEC3"
		},
		{
			"bufferView":2,
			"componentType":5126,
			"count":660,
			"type":"VEC2"
		},
		{
			"bufferView":3,
			"componentType":5123,
			"count":996,
			"type":"SCALAR"
		},
		{
			"bufferView":4,
			"componentType":5126,
			"count":96,
			"max":[
				0.052868396043777466,
				0.14230427145957947,
				0.007261235266923904
			],
			"min":[
				-0.052868396043777466,
				-0.14230427145957947,
				-0.007261302322149277
			],
			"type":"VEC3"
		},
		{
			"bufferView":5,
			"componentType":5126,
			"count":96,
			"type":"VEC3"
		},
		{
			"bufferView":6,
			"componentType":5126,
			"count":96,
			"type":"VEC2"
		},
		{
			"bufferView":7,
			"componentType":5123,
			"count":132,
			"type":"SCALAR"
		},
		{
			"bufferView":8,
			"componentType":5126,
			"count":288,
			"max":[
				0.037757840007543564,
				0.03775782510638237,
				0.03638067841529846
			],
			"min":[
				-0.037757840007543564,
				-0.203892320394516,
				0.024466149508953094
			],
			"type":"VEC3"
		},
		{
			"bufferView":9,
			"componentType":5126,
			"count":288,
			"type":"VEC3"
		},
		{
			"bufferView":10,
			"componentType":5126,
			"count":288,
			"type":"VEC2"
		},
		{
			"bufferView":11,
			"componentType":5123,
			"count":396,
			"type":"SCALAR"
		},
		{
			"bufferView":12,
			"componentType":5126,
			"count":1356,
			"max":[
				0.06595803052186966,
				0.00304257869720459,
				0.00134943425655365
			],
			"min":[
				-0.0030423924326896667,
				-0.2328965961933136,
				-0.0012626796960830688
			],
			"type":"VEC3"
		},
		{
			"bufferView":13,
			"componentType":5126,
			"count":1356,
			"type":"VEC3"
		},
		{
			"bufferView":14,
			"componentType":5126,
			"count":1356,
			"type":"VEC2"
		},
		{
			"bufferView":15,
			"componentType":5123,
			"count":5760,
			"type":"SCALAR"
		},
		{
			"bufferView":16,
			"componentType":5126,
			"count":1736,
			"max":[
				0.018622316420078278,
				0.10443294793367386,
				0.009473603218793869
			],
			"min":[
				-0.00947361160069704,
				-0.5458602905273438,
				-0.017509102821350098
			],
			"type":"VEC3"
		},
		{
			"bufferView":17,
			"componentType":5126,
			"count":1736,
			"type":"VEC3"
		},
		{
			"bufferView":18,
			"componentType":5126,
			"count":1736,
			"type":"VEC2"
		},
		{
			"bufferView":19,
			"componentType":5123,
			"count":8478,
			"type":"SCALAR"
		},
		{
			"bufferView":20,
			"componentType":5126,
			"count":298,
			"max":[
				0.01859302632510662,
				0.10446223616600037,
				0.009438622742891312
			],
			"min":[
				-0.009438630193471909,
				-0.34915873408317566,
				-0.01747981272637844
			],
			"type":"VEC3"
		},
		{
			"bufferView":21,
			"componentType":5126,
			"count":298,
			"type":"VEC3"
		},
		{
			"bufferView":22,
			"componentType":5126,
			"count":298,
			"type":"VEC2"
		},
		{
			"bufferView":23,
			"componentType":5123,
			"count":1134,
			"type":"SCALAR"
		},
		{
			"bufferView":24,
			"componentType":5126,
			"count":1944,
			"max":[
				0.0328296422958374,
				0.03811977803707123,
				0.19829115271568298
			],
			"min":[
				-0.03282967209815979,
				-1.4901161193847656e-08,
				-0.03282952308654785
			],
			"type":"VEC3"
		},
		{
			"bufferView":25,
			"componentType":5126,
			"count":1944,
			"type":"VEC3"
		},
		{
			"bufferView":26,
			"componentType":5126,
			"count":1944,
			"type":"VEC2"
		},
		{
			"bufferView":27,
			"componentType":5123,
			"count":5760,
			"type":"SCALAR"
		},
		{
			"bufferView":28,
			"componentType":5126,
			"count":132,
			"max":[
				0.028217613697052002,
				0.03811977803707123,
				0.028217673301696777
			],
			"min":[
				-0.028217613697052002,
				0.0024334192276000977,
				-0.028217554092407227
			],
			"type":"VEC3"
		},
		{
			"bufferView":29,
			"componentType":5126,
			"count":132,
			"type":"VEC3"
		},
		{
			"bufferView":30,
			"componentType":5126,
			"count":132,
			"type":"VEC2"
		},
		{
			"bufferView":31,
			"componentType":5123,
			"count":384,
			"type":"SCALAR"
		},
		{
			"bufferView":32,
			"componentType":5126,
			"count":132,
			"max":[
				0.028217613697052002,
				0.03811977803707123,
				0.11094836890697479
			],
			"min":[
				-0.028217613697052002,
				0.0024334192276000977,
				0.05451314151287079
			],
			"type":"VEC3"
		},
		{
			"bufferView":33,
			"componentType":5126,
			"count":132,
			"type":"VEC3"
		},
		{
			"bufferView":34,
			"componentType":5126,
			"count":132,
			"type":"VEC2"
		},
		{
			"bufferView":35,
			"componentType":5126,
			"count":132,
			"max":[
				0.028217613697052002,
				0.03811977803707123,
				0.1936790645122528
			],
			"min":[
				-0.028217613697052002,
				0.0024334192276000977,
				0.1372438371181488
			],
			"type":"VEC3"
		},
		{
			"bufferView":36,
			"componentType":5126,
			"count":132,
			"type":"VEC3"
		},
		{
			"bufferView":37,
			"componentType":5126,
			"count":132,
			"type":"VEC2"
		},
		{
			"bufferView":38,
			"componentType":5126,
			"count":287,
			"max":[
				0.027414966374635696,
				0.024070143699645996,
				0.02737336978316307
			],
			"min":[
				-0.027251727879047394,
				0.00308820977807045,
				-0.027293294668197632
			],
			"type":"VEC3"
		},
		{
			"bufferView":39,
			"componentType":5126,
			"count":287,
			"type":"VEC3"
		},
		{
			"bufferView":40,
			"componentType":5126,
			"count":287,
			"type":"VEC2"
		},
		{
			"bufferView":41,
			"componentType":5123,
			"count":1440,
			"type":"SCALAR"
		},
		{
			"bufferView":42,
			"componentType":5126,
			"count":287,
			"max":[
				0.027414966374635696,
				0.024070143699645996,
				0.11019337177276611
			],
			"min":[
				-0.027251727879047394,
				0.00308820977807045,
				0.05552670359611511
			],
			"type":"VEC3"
		},
		{
			"bufferView":43,
			"componentType":5126,
			"count":287,
			"type":"VEC3"
		},
		{
			"bufferView":44,
			"componentType":5126,
			"count":287,
			"type":"VEC2"
		},
		{
			"bufferView":45,
			"componentType":5126,
			"count":287,
			"max":[
				0.027414966374635696,
				0.024070143699645996,
				0.19301337003707886
			],
			"min":[
				-0.027251727879047394,
				0.00308820977807045,
				0.13834670186042786
			],
			"type":"VEC3"
		},
		{
			"bufferView":46,
			"componentType":5126,
			"count":287,
			"type":"VEC3"
		},
		{
			"bufferView":47,
			"componentType":5126,
			"count":287,
			"type":"VEC2"
		},
		{
			"bufferView":48,
			"componentType":5126,
			"count":160,
			"max":[
				0.009534209966659546,
				0.009534071199595928,
				0.11928053945302963
			],
			"min":[
				-0.009534157812595367,
				-0.009534303098917007,
				-0.010643530637025833
			],
			"type":"VEC3"
		},
		{
			"bufferView":49,
			"componentType":5126,
			"count":160,
			"type":"VEC3"
		},
		{
			"bufferView":50,
			"componentType":5126,
			"count":160,
			"type":"VEC2"
		},
		{
			"bufferView":51,
			"componentType":5123,
			"count":480,
			"type":"SCALAR"
		},
		{
			"bufferView":52,
			"componentType":5126,
			"count":192,
			"max":[
				0.009434333071112633,
				0.039553217589855194,
				0.142045795917511
			],
			"min":[
				-0.009434279054403305,
				-0.0074067916721105576,
				-0.010643530637025833
			],
			"type":"VEC3"
		},
		{
			"bufferView":53,
			"componentType":5126,
			"count":192,
			"type":"VEC3"
		},
		{
			"bufferView":54,
			"componentType":5126,
			"count":192,
			"type":"VEC2"
		},
		{
			"bufferView":55,
			"componentType":5123,
			"count":576,
			"type":"SCALAR"
		},
		{
			"bufferView":56,
			"componentType":5126,
			"count":208,
			"max":[
				0.005581199657171965,
				0.01098601520061493,
				0.13819263875484467
			],
			"min":[
				-0.0055811479687690735,
				-0.005581317003816366,
				0.12175597250461578
			],
			"type":"VEC3"
		},
		{
			"bufferView":57,
			"componentType":5126,
			"count":208,
			"type":"VEC3"
		},
		{
			"bufferView":58,
			"componentType":5126,
			"count":208,
			"type":"VEC2"
		},
		{
			"bufferView":59,
			"componentType":5123,
			"count":960,
			"type":"SCALAR"
		}
	],
	"bufferViews":[
		{
			"buffer":0,
			"byteLength":7920,
			"byteOffset":0,
			"target":34962
		},
		{
			"buffer":0,
			"byteLength":7920,
			"byteOffset":7920,
			"target":34962
		},
		{
			"buffer":0,
			"byteLength":5280,
			"byteOffset":15840,
			"target":34962
		},
		{
			"buffer":0,
			"byteLength":1992,
			"byteOffset":21120,
			"target":34963
		},
		{
			"buffer":0,
			"byteLength":1152,
			"byteOffset":23112,
			"target":34962
		},
		{
			"buffer":0,
			"byteLength":1152,
			"byteOffset":24264,
			"target":34962
		},
		{
			"buffer":0,
			"byteLength":768,
			"byteOffset":25416,
			"target":34962
		},
		{
			"buffer":0,
			"byteLength":264,
			"byteOffset":26184,
			"target":34963
		},
		{
			"buffer":0,
			"byteLength":3456,
			"byteOffset":26448,
			"target":34962
		},
		{
			"buffer":0,
			"byteLength":3456,
			"byteOffset":29904,
			"target":34962
		},
		{
			"buffer":0,
			"byteLength":2304,
			"byteOffset":33360,
			"target":34962
		},
		{
			"buffer":0,
			"byteLength":792,
			"byteOffset":35664,
			"target":34963
		},
		{
			"buffer":0,
			"byteLength":16272,
			"byteOffset":36456,
			"target":34962
		},
		{
			"buffer":0,
			"byteLength":16272,
			"byteOffset":52728,
			"target":34962
		},
		{
			"buffer":0,
			"byteLength":10848,
			"byteOffset":69000,
			"target":34962
		},
		{
			"buffer":0,
			"byteLength":11520,
			"byteOffset":79848,
			"target":34963
		},
		{
			"buffer":0,
			"byteLength":20832,
			"byteOffset":91368,
			"target":34962
		},
		{
			"buffer":0,
			"byteLength":20832,
			"byteOffset":112200,
			"target":34962
		},
		{
			"buffer":0,
			"byteLength":13888,
			"byteOffset":133032,
			"target":34962
		},
		{
			"buffer":0,
			"byteLength":16956,
			"byteOffset":146920,
			"target":34963
		},
		{
			"buffer":0,
			"byteLength":3576,
			"byteOffset":163876,
			"target":34962
		},
		{
			"buffer":0,
			"byteLength":3576,
			"byteOffset":167452,
			"target":34962
		},
		{
			"buffer":0,
			"byteLength":2384,
			"byteOffset":171028,
			"target":34962
		},
		{
			"buffer":0,
			"byteLength":2268,
			"byteOffset":173412,
			"target":34963
		},
		{
			"buffer":0,
			"byteLength":23328,
			"byteOffset":175680,
			"target":34962
		},
		{
			"buffer":0,
			"byteLength":23328,
			"byteOffset":199008,
			"target":34962
		},
		{
			"buffer":0,
			"byteLength":15552,
			"byteOffset":222336,
			"target":34962
		},
		{
			"buffer":0,
			"byteLength":11520,
			"byteOffset":237888,
			"target":34963
		},
		{
			"buffer":0,
			"byteLength":1584,
			"byteOffset":249408,
			"target":34962
		},
		{
			"buffer":0,
			"byteLength":1584,
			"byteOffset":250992,
			"target":34962
		},
		{
			"buffer":0,
			"byteLength":1056,
			"byteOffset":252576,
			"target":34962
		},
		{
			"buffer":0,
			"byteLength":768,
			"byteOffset":253632,
			"target":34963
		},
		{
			"buffer":0,
			"byteLength":1584,
			"byteOffset":254400,
			"target":34962
		},
		{
			"buffer":0,
			"byteLength":1584,
			"byteOffset":255984,
			"target":34962
		},
		{
			"buffer":0,
			"byteLength":1056,
			"byteOffset":257568,
			"target":34962
		},
		{
			"buffer":0,
			"byteLength":1584,
			"byteOffset":258624,
			"target":34962
		},
		{
			"buffer":0,
			"byteLength":1584,
			"byteOffset":260208,
			"target":34962
		},
		{
			"buffer":0,
			"byteLength":1056,
			"byteOffset":261792,
			"target":34962
		},
		{
			"buffer":0,
			"byteLength":3444,
			"byteOffset":262848,
			"target":34962
		},
		{
			"buffer":0,
			"byteLength":3444,
			"byteOffset":266292,
			"target":34962
		},
		{
			"buffer":0,
			"byteLength":2296,
			"byteOffset":269736,
			"target":34962
		},
		{
			"buffer":0,
			"byteLength":2880,
			"byteOffset":272032,
			"target":34963
		},
		{
			"buffer":0,
			"byteLength":3444,
			"byteOffset":274912,
			"target":34962
		},
		{
			"buffer":0,
			"byteLength":3444,
			"byteOffset":278356,
			"target":34962
		},
		{
			"buffer":0,
			"byteLength":2296,
			"byteOffset":281800,
			"target":34962
		},
		{
			"buffer":0,
			"byteLength":3444,
			"byteOffset":284096,
			"target":34962
		},
		{
			"buffer":0,
			"byteLength":3444,
			"byteOffset":287540,
			"target":34962
		},
		{
			"buffer":0,
			"byteLength":2296,
			"byteOffset":290984,
			"target":34962
		},
		{
			"buffer":0,
			"byteLength":1920,
			"byteOffset":293280,
			"target":34962
		},
		{
			"buffer":0,
			"byteLength":1920,
			"byteOffset":295200,
			"target":34962
		},
		{
			"buffer":0,
			"byteLength":1280,
			"byteOffset":297120,
			"target":34962
		},
		{
			"buffer":0,
			"byteLength":960,
			"byteOffset":298400,
			"target":34963
		},
		{
			"buffer":0,
			"byteLength":2304,
			"byteOffset":299360,
			"target":34962
		},
		{
			"buffer":0,
			"byteLength":2304,
			"byteOffset":301664,
			"target":34962
		},
		{
			"buffer":0,
			"byteLength":1536,
			"byteOffset":303968,
			"target":34962
		},
		{
			"buffer":0,
			"byteLength":1152,
			"byteOffset":305504,
			"target":34963
		},
		{
			"buffer":0,
			"byteLength":2496,
			"byteOffset":306656,
			"target":34962
		},
		{
			"buffer":0,
			"byteLength":2496,
			"byteOffset":309152,
			"target":34962
		},
		{
			"buffer":0,
			"byteLength":1664,
			"byteOffset":311648,
			"target":34962
		},
		{
			"buffer":0,
			"byteLength":1920,
			"byteOffset":313312,
			"target":34963
		}
	],
	"buffers":[
		{
			"byteLength":315232,
			"uri":"Driving.bin"
		}
	]
}
