{
	"asset":{
		"generator":"Khronos glTF Blender I/O v4.1.63",
		"version":"2.0"
	},
	"scene":0,
	"scenes":[
		{
			"name":"Scene",
			"nodes":[
				0,
				1,
				2
			]
		}
	],
	"nodes":[
		{
			"mesh":0,
			"name":"Fence1_Gate_Right_Frames_MAT_0.001",
			"rotation":[
				-0.7071068286895752,
				0,
				0,
				0.7071068286895752
			],
			"scale":[
				0.9919538497924805,
				0.9919540286064148,
				0.9919539093971252
			],
			"translation":[
				0.10141706466674805,
				0.5702654123306274,
				-0.06804871559143066
			]
		},
		{
			"mesh":1,
			"name":"Fence1_Gate_Right_Planks_MAT_0.001",
			"rotation":[
				-0.7071068286895752,
				0,
				0,
				0.7071068286895752
			],
			"scale":[
				0.9919538497924805,
				0.9919540286064148,
				0.9919539093971252
			],
			"translation":[
				0.10141706466674805,
				0.5702654123306274,
				-0.06804871559143066
			]
		},
		{
			"mesh":2,
			"name":"Fence1_Latch_Planks_MAT_0.001",
			"rotation":[
				0,
				-0.887010931968689,
				0.4617486298084259,
				6.774227756523032e-08
			],
			"scale":[
				0.9919536709785461,
				0.99195396900177,
				0.9919539093971252
			],
			"translation":[
				0.10141587257385254,
				0.5702652931213379,
				-0.06805014610290527
			]
		}
	],
	"materials":[
		{
			"doubleSided":true,
			"name":"Frames_MAT",
			"normalTexture":{
				"index":0
			},
			"pbrMetallicRoughness":{
				"baseColorTexture":{
					"index":1
				},
				"metallicRoughnessTexture":{
					"index":2
				}
			}
		},
		{
			"doubleSided":true,
			"name":"Planks_MAT",
			"normalTexture":{
				"index":3
			},
			"pbrMetallicRoughness":{
				"baseColorTexture":{
					"index":4
				},
				"metallicRoughnessTexture":{
					"index":5
				}
			}
		}
	],
	"meshes":[
		{
			"name":"Fence1_Gate_Right_Frames_MAT_0.001",
			"primitives":[
				{
					"attributes":{
						"POSITION":0,
						"NORMAL":1,
						"TEXCOORD_0":2,
						"TEXCOORD_1":3,
						"TEXCOORD_2":4
					},
					"indices":5,
					"material":0
				}
			]
		},
		{
			"name":"Fence1_Gate_Right_Planks_MAT_0.001",
			"primitives":[
				{
					"attributes":{
						"POSITION":6,
						"NORMAL":7,
						"TEXCOORD_0":8,
						"TEXCOORD_1":9,
						"TEXCOORD_2":10
					},
					"indices":11,
					"material":1
				}
			]
		},
		{
			"name":"Fence1_Latch_Planks_MAT_0.001",
			"primitives":[
				{
					"attributes":{
						"POSITION":12,
						"NORMAL":13,
						"TEXCOORD_0":14,
						"TEXCOORD_1":15,
						"TEXCOORD_2":16
					},
					"indices":17,
					"material":1
				}
			]
		}
	],
	"textures":[
		{
			"sampler":0,
			"source":0
		},
		{
			"sampler":0,
			"source":1
		},
		{
			"sampler":0,
			"source":2
		},
		{
			"sampler":0,
			"source":3
		},
		{
			"sampler":0,
			"source":4
		},
		{
			"sampler":0,
			"source":5
		}
	],
	"images":[
		{
			"mimeType":"image/png",
			"name":"Frames_MAT_normal",
			"uri":"Textures/Frames_MAT_normal.png"
		},
		{
			"mimeType":"image/png",
			"name":"Frames_MAT_baseColor",
			"uri":"Textures/Frames_MAT_baseColor.png"
		},
		{
			"mimeType":"image/png",
			"name":"Frames_MAT_metallicRoughness",
			"uri":"Textures/Frames_MAT_metallicRoughness.png"
		},
		{
			"mimeType":"image/png",
			"name":"Planks_MAT_normal",
			"uri":"Textures/Planks_MAT_normal.png"
		},
		{
			"mimeType":"image/png",
			"name":"Planks_MAT_baseColor",
			"uri":"Textures/Planks_MAT_baseColor.png"
		},
		{
			"mimeType":"image/png",
			"name":"Planks_MAT_metallicRoughness",
			"uri":"Textures/Planks_MAT_metallicRoughness.png"
		}
	],
	"accessors":[
		{
			"bufferView":0,
			"componentType":5126,
			"count":222,
			"max":[
				0.8619336485862732,
				0.011261962354183197,
				0.3795379400253296
			],
			"min":[
				0.006803275551646948,
				-0.12297177314758301,
				-0.3433341681957245
			],
			"type":"VEC3"
		},
		{
			"bufferView":1,
			"componentType":5126,
			"count":222,
			"type":"VEC3"
		},
		{
			"bufferView":2,
			"componentType":5126,
			"count":222,
			"type":"VEC2"
		},
		{
			"bufferView":3,
			"componentType":5126,
			"count":222,
			"type":"VEC2"
		},
		{
			"bufferView":4,
			"componentType":5126,
			"count":222,
			"type":"VEC2"
		},
		{
			"bufferView":5,
			"componentType":5123,
			"count":336,
			"type":"SCALAR"
		},
		{
			"bufferView":6,
			"componentType":5126,
			"count":728,
			"max":[
				0.8619322180747986,
				0.01611322909593582,
				0.6353779435157776
			],
			"min":[
				1.8375126273895148e-06,
				-0.09887667745351791,
				-0.4773491621017456
			],
			"type":"VEC3"
		},
		{
			"bufferView":7,
			"componentType":5126,
			"count":728,
			"type":"VEC3"
		},
		{
			"bufferView":8,
			"componentType":5126,
			"count":728,
			"type":"VEC2"
		},
		{
			"bufferView":9,
			"componentType":5126,
			"count":728,
			"type":"VEC2"
		},
		{
			"bufferView":10,
			"componentType":5126,
			"count":728,
			"type":"VEC2"
		},
		{
			"bufferView":11,
			"componentType":5123,
			"count":1416,
			"type":"SCALAR"
		},
		{
			"bufferView":12,
			"componentType":5126,
			"count":133,
			"max":[
				-0.6585087776184082,
				0.1949586123228073,
				-0.22279416024684906
			],
			"min":[
				-0.8837858438491821,
				0.18046912550926208,
				-0.2634405791759491
			],
			"type":"VEC3"
		},
		{
			"bufferView":13,
			"componentType":5126,
			"count":133,
			"type":"VEC3"
		},
		{
			"bufferView":14,
			"componentType":5126,
			"count":133,
			"type":"VEC2"
		},
		{
			"bufferView":15,
			"componentType":5126,
			"count":133,
			"type":"VEC2"
		},
		{
			"bufferView":16,
			"componentType":5126,
			"count":133,
			"type":"VEC2"
		},
		{
			"bufferView":17,
			"componentType":5123,
			"count":264,
			"type":"SCALAR"
		}
	],
	"bufferViews":[
		{
			"buffer":0,
			"byteLength":2664,
			"byteOffset":0,
			"target":34962
		},
		{
			"buffer":0,
			"byteLength":2664,
			"byteOffset":2664,
			"target":34962
		},
		{
			"buffer":0,
			"byteLength":1776,
			"byteOffset":5328,
			"target":34962
		},
		{
			"buffer":0,
			"byteLength":1776,
			"byteOffset":7104,
			"target":34962
		},
		{
			"buffer":0,
			"byteLength":1776,
			"byteOffset":8880,
			"target":34962
		},
		{
			"buffer":0,
			"byteLength":672,
			"byteOffset":10656,
			"target":34963
		},
		{
			"buffer":0,
			"byteLength":8736,
			"byteOffset":11328,
			"target":34962
		},
		{
			"buffer":0,
			"byteLength":8736,
			"byteOffset":20064,
			"target":34962
		},
		{
			"buffer":0,
			"byteLength":5824,
			"byteOffset":28800,
			"target":34962
		},
		{
			"buffer":0,
			"byteLength":5824,
			"byteOffset":34624,
			"target":34962
		},
		{
			"buffer":0,
			"byteLength":5824,
			"byteOffset":40448,
			"target":34962
		},
		{
			"buffer":0,
			"byteLength":2832,
			"byteOffset":46272,
			"target":34963
		},
		{
			"buffer":0,
			"byteLength":1596,
			"byteOffset":49104,
			"target":34962
		},
		{
			"buffer":0,
			"byteLength":1596,
			"byteOffset":50700,
			"target":34962
		},
		{
			"buffer":0,
			"byteLength":1064,
			"byteOffset":52296,
			"target":34962
		},
		{
			"buffer":0,
			"byteLength":1064,
			"byteOffset":53360,
			"target":34962
		},
		{
			"buffer":0,
			"byteLength":1064,
			"byteOffset":54424,
			"target":34962
		},
		{
			"buffer":0,
			"byteLength":528,
			"byteOffset":55488,
			"target":34963
		}
	],
	"samplers":[
		{
			"magFilter":9729,
			"minFilter":9987
		}
	],
	"buffers":[
		{
			"byteLength":56016,
			"uri":"Brown%20Gate%20Left.bin"
		}
	]
}
