{
	"asset":{
		"generator":"Khronos glTF Blender I/O v4.1.63",
		"version":"2.0"
	},
	"scene":0,
	"scenes":[
		{
			"name":"Scene",
			"nodes":[
				0,
				1
			]
		}
	],
	"nodes":[
		{
			"mesh":0,
			"name":"Fence1_Post_Gate_Left_Planks_MAT_0.001",
			"rotation":[
				0,
				-0.7071066498756409,
				-0.7071069478988647,
				5.3385065257316455e-08
			],
			"scale":[
				0.9919537305831909,
				0.9919538497924805,
				0.9919538497924805
			],
			"translation":[
				1.9374951124191284,
				0,
				-0.004153251647949219
			]
		},
		{
			"mesh":1,
			"name":"Fence1_Post_Gate_Right_Planks_MAT_0.001",
			"rotation":[
				0,
				0.7071066498756409,
				-0.7071069478988647,
				1.1520227616301781e-07
			],
			"scale":[
				0.9919537305831909,
				0.9919538497924805,
				0.9919538497924805
			],
			"translation":[
				-0.0007412433624267578,
				0,
				-0.004153249319642782
			]
		}
	],
	"materials":[
		{
			"doubleSided":true,
			"name":"Planks_MAT",
			"normalTexture":{
				"index":0
			},
			"pbrMetallicRoughness":{
				"baseColorTexture":{
					"index":1
				},
				"metallicRoughnessTexture":{
					"index":2
				}
			}
		}
	],
	"meshes":[
		{
			"name":"Fence1_Post_Gate_Left_Planks_MAT_0.001",
			"primitives":[
				{
					"attributes":{
						"POSITION":0,
						"NORMAL":1,
						"TEXCOORD_0":2,
						"TEXCOORD_1":3,
						"TEXCOORD_2":4
					},
					"indices":5,
					"material":0
				}
			]
		},
		{
			"name":"Fence1_Post_Gate_Right_Planks_MAT_0.001",
			"primitives":[
				{
					"attributes":{
						"POSITION":6,
						"NORMAL":7,
						"TEXCOORD_0":8,
						"TEXCOORD_1":9,
						"TEXCOORD_2":10
					},
					"indices":11,
					"material":0
				}
			]
		}
	],
	"textures":[
		{
			"sampler":0,
			"source":0
		},
		{
			"sampler":0,
			"source":1
		},
		{
			"sampler":0,
			"source":2
		}
	],
	"images":[
		{
			"mimeType":"image/png",
			"name":"Planks_MAT_normal",
			"uri":"Textures/Planks_MAT_normal.png"
		},
		{
			"mimeType":"image/png",
			"name":"Planks_MAT_baseColor",
			"uri":"Textures/Planks_MAT_baseColor.png"
		},
		{
			"mimeType":"image/png",
			"name":"Planks_MAT_metallicRoughness",
			"uri":"Textures/Planks_MAT_metallicRoughness.png"
		}
	],
	"accessors":[
		{
			"bufferView":0,
			"componentType":5126,
			"count":292,
			"max":[
				0.09571599960327148,
				-0.06635782122612,
				0.9310451149940491
			],
			"min":[
				0.023052603006362915,
				-0.07790479809045792,
				0.2184460163116455
			],
			"type":"VEC3"
		},
		{
			"bufferView":1,
			"componentType":5126,
			"count":292,
			"type":"VEC3"
		},
		{
			"bufferView":2,
			"componentType":5126,
			"count":292,
			"type":"VEC2"
		},
		{
			"bufferView":3,
			"componentType":5126,
			"count":292,
			"type":"VEC2"
		},
		{
			"bufferView":4,
			"componentType":5126,
			"count":292,
			"type":"VEC2"
		},
		{
			"bufferView":5,
			"componentType":5123,
			"count":972,
			"type":"SCALAR"
		},
		{
			"bufferView":6,
			"componentType":5126,
			"count":292,
			"max":[
				-0.03479042649269104,
				0.07790467888116837,
				-0.21859145164489746
			],
			"min":[
				-0.10745382308959961,
				0.06635770201683044,
				-0.931190550327301
			],
			"type":"VEC3"
		},
		{
			"bufferView":7,
			"componentType":5126,
			"count":292,
			"type":"VEC3"
		},
		{
			"bufferView":8,
			"componentType":5126,
			"count":292,
			"type":"VEC2"
		},
		{
			"bufferView":9,
			"componentType":5126,
			"count":292,
			"type":"VEC2"
		},
		{
			"bufferView":10,
			"componentType":5126,
			"count":292,
			"type":"VEC2"
		},
		{
			"bufferView":11,
			"componentType":5123,
			"count":972,
			"type":"SCALAR"
		}
	],
	"bufferViews":[
		{
			"buffer":0,
			"byteLength":3504,
			"byteOffset":0,
			"target":34962
		},
		{
			"buffer":0,
			"byteLength":3504,
			"byteOffset":3504,
			"target":34962
		},
		{
			"buffer":0,
			"byteLength":2336,
			"byteOffset":7008,
			"target":34962
		},
		{
			"buffer":0,
			"byteLength":2336,
			"byteOffset":9344,
			"target":34962
		},
		{
			"buffer":0,
			"byteLength":2336,
			"byteOffset":11680,
			"target":34962
		},
		{
			"buffer":0,
			"byteLength":1944,
			"byteOffset":14016,
			"target":34963
		},
		{
			"buffer":0,
			"byteLength":3504,
			"byteOffset":15960,
			"target":34962
		},
		{
			"buffer":0,
			"byteLength":3504,
			"byteOffset":19464,
			"target":34962
		},
		{
			"buffer":0,
			"byteLength":2336,
			"byteOffset":22968,
			"target":34962
		},
		{
			"buffer":0,
			"byteLength":2336,
			"byteOffset":25304,
			"target":34962
		},
		{
			"buffer":0,
			"byteLength":2336,
			"byteOffset":27640,
			"target":34962
		},
		{
			"buffer":0,
			"byteLength":1944,
			"byteOffset":29976,
			"target":34963
		}
	],
	"samplers":[
		{
			"magFilter":9729,
			"minFilter":9987
		}
	],
	"buffers":[
		{
			"byteLength":31920,
			"uri":"Brown%20Gate%20Base.bin"
		}
	]
}
