{
	"asset":{
		"generator":"Khronos glTF Blender I/O v4.1.63",
		"version":"2.0"
	},
	"scene":0,
	"scenes":[
		{
			"name":"Scene",
			"nodes":[
				0,
				1
			]
		}
	],
	"nodes":[
		{
			"mesh":0,
			"name":"Fence1_Gate_Left_Frames_MAT_0.001",
			"rotation":[
				0,
				-1,
				0,
				7.549790126404332e-08
			],
			"scale":[
				0.9919537305831909,
				0.9919539093971252,
				0.9919539093971252
			],
			"translation":[
				1.8495738506317139,
				0.5701210498809814,
				-0.06805038452148438
			]
		},
		{
			"mesh":1,
			"name":"Fence1_Gate_Left_Planks_MAT_0.001",
			"rotation":[
				0,
				-1,
				0,
				7.549790126404332e-08
			],
			"scale":[
				0.9919537305831909,
				0.9919539093971252,
				0.9919539093971252
			],
			"translation":[
				1.8495738506317139,
				0.5701210498809814,
				-0.06805038452148438
			]
		}
	],
	"materials":[
		{
			"doubleSided":true,
			"name":"Frames_MAT",
			"normalTexture":{
				"index":0
			},
			"pbrMetallicRoughness":{
				"baseColorTexture":{
					"index":1
				},
				"metallicRoughnessTexture":{
					"index":2
				}
			}
		},
		{
			"doubleSided":true,
			"name":"Planks_MAT",
			"normalTexture":{
				"index":3
			},
			"pbrMetallicRoughness":{
				"baseColorTexture":{
					"index":4
				},
				"metallicRoughnessTexture":{
					"index":5
				}
			}
		}
	],
	"meshes":[
		{
			"name":"Fence1_Gate_Left_Frames_MAT_0.001",
			"primitives":[
				{
					"attributes":{
						"POSITION":0,
						"NORMAL":1,
						"TEXCOORD_0":2,
						"TEXCOORD_1":3,
						"TEXCOORD_2":4
					},
					"indices":5,
					"material":0
				}
			]
		},
		{
			"name":"Fence1_Gate_Left_Planks_MAT_0.001",
			"primitives":[
				{
					"attributes":{
						"POSITION":6,
						"NORMAL":7,
						"TEXCOORD_0":8,
						"TEXCOORD_1":9,
						"TEXCOORD_2":10
					},
					"indices":11,
					"material":1
				}
			]
		}
	],
	"textures":[
		{
			"sampler":0,
			"source":0
		},
		{
			"sampler":0,
			"source":1
		},
		{
			"sampler":0,
			"source":2
		},
		{
			"sampler":0,
			"source":3
		},
		{
			"sampler":0,
			"source":4
		},
		{
			"sampler":0,
			"source":5
		}
	],
	"images":[
		{
			"mimeType":"image/png",
			"name":"Frames_MAT_normal",
			"uri":"Textures/Frames_MAT_normal.png"
		},
		{
			"mimeType":"image/png",
			"name":"Frames_MAT_baseColor",
			"uri":"Textures/Frames_MAT_baseColor.png"
		},
		{
			"mimeType":"image/png",
			"name":"Frames_MAT_metallicRoughness",
			"uri":"Textures/Frames_MAT_metallicRoughness.png"
		},
		{
			"mimeType":"image/png",
			"name":"Planks_MAT_normal",
			"uri":"Textures/Planks_MAT_normal.png"
		},
		{
			"mimeType":"image/png",
			"name":"Planks_MAT_baseColor",
			"uri":"Textures/Planks_MAT_baseColor.png"
		},
		{
			"mimeType":"image/png",
			"name":"Planks_MAT_metallicRoughness",
			"uri":"Textures/Planks_MAT_metallicRoughness.png"
		}
	],
	"accessors":[
		{
			"bufferView":0,
			"componentType":5126,
			"count":208,
			"max":[
				0.8708972930908203,
				0.3796834349632263,
				0.011261943727731705
			],
			"min":[
				0.01576787233352661,
				-0.34318867325782776,
				-0.1229715347290039
			],
			"type":"VEC3"
		},
		{
			"bufferView":1,
			"componentType":5126,
			"count":208,
			"type":"VEC3"
		},
		{
			"bufferView":2,
			"componentType":5126,
			"count":208,
			"type":"VEC2"
		},
		{
			"bufferView":3,
			"componentType":5126,
			"count":208,
			"type":"VEC2"
		},
		{
			"bufferView":4,
			"componentType":5126,
			"count":208,
			"type":"VEC2"
		},
		{
			"bufferView":5,
			"componentType":5123,
			"count":336,
			"type":"SCALAR"
		},
		{
			"bufferView":6,
			"componentType":5126,
			"count":443,
			"max":[
				0.8708977699279785,
				0.63552325963974,
				0.01611342653632164
			],
			"min":[
				-1.7510389227481937e-07,
				-0.47720369696617126,
				-0.09887612611055374
			],
			"type":"VEC3"
		},
		{
			"bufferView":7,
			"componentType":5126,
			"count":443,
			"type":"VEC3"
		},
		{
			"bufferView":8,
			"componentType":5126,
			"count":443,
			"type":"VEC2"
		},
		{
			"bufferView":9,
			"componentType":5126,
			"count":443,
			"type":"VEC2"
		},
		{
			"bufferView":10,
			"componentType":5126,
			"count":443,
			"type":"VEC2"
		},
		{
			"bufferView":11,
			"componentType":5123,
			"count":804,
			"type":"SCALAR"
		}
	],
	"bufferViews":[
		{
			"buffer":0,
			"byteLength":2496,
			"byteOffset":0,
			"target":34962
		},
		{
			"buffer":0,
			"byteLength":2496,
			"byteOffset":2496,
			"target":34962
		},
		{
			"buffer":0,
			"byteLength":1664,
			"byteOffset":4992,
			"target":34962
		},
		{
			"buffer":0,
			"byteLength":1664,
			"byteOffset":6656,
			"target":34962
		},
		{
			"buffer":0,
			"byteLength":1664,
			"byteOffset":8320,
			"target":34962
		},
		{
			"buffer":0,
			"byteLength":672,
			"byteOffset":9984,
			"target":34963
		},
		{
			"buffer":0,
			"byteLength":5316,
			"byteOffset":10656,
			"target":34962
		},
		{
			"buffer":0,
			"byteLength":5316,
			"byteOffset":15972,
			"target":34962
		},
		{
			"buffer":0,
			"byteLength":3544,
			"byteOffset":21288,
			"target":34962
		},
		{
			"buffer":0,
			"byteLength":3544,
			"byteOffset":24832,
			"target":34962
		},
		{
			"buffer":0,
			"byteLength":3544,
			"byteOffset":28376,
			"target":34962
		},
		{
			"buffer":0,
			"byteLength":1608,
			"byteOffset":31920,
			"target":34963
		}
	],
	"samplers":[
		{
			"magFilter":9729,
			"minFilter":9987
		}
	],
	"buffers":[
		{
			"byteLength":33528,
			"uri":"Brown%20Gate%20Right.bin"
		}
	]
}
