{
	"asset":{
		"generator":"Khronos glTF Blender I/O v4.1.63",
		"version":"2.0"
	},
	"scene":0,
	"scenes":[
		{
			"name":"Scene",
			"nodes":[
				0,
				1
			]
		}
	],
	"nodes":[
		{
			"mesh":0,
			"name":"Fence1_Large_Left_Frames_MAT_0.001",
			"rotation":[
				-0.7071069478988647,
				0,
				0,
				0.7071066498756409
			],
			"scale":[
				0.9919537305831909,
				0.9919538497924805,
				0.9919538497924805
			],
			"translation":[
				0.9600033760070801,
				0,
				0.0021371841430664062
			]
		},
		{
			"mesh":1,
			"name":"Fence1_Large_Left_Planks_MAT_0.001",
			"rotation":[
				-0.7071069478988647,
				0,
				0,
				0.7071066498756409
			],
			"scale":[
				0.9919537305831909,
				0.9919538497924805,
				0.9919538497924805
			],
			"translation":[
				0.9600033760070801,
				0,
				0.0021371841430664062
			]
		}
	],
	"materials":[
		{
			"doubleSided":true,
			"name":"Frames_MAT",
			"normalTexture":{
				"index":0
			},
			"pbrMetallicRoughness":{
				"baseColorTexture":{
					"index":1
				},
				"metallicRoughnessTexture":{
					"index":2
				}
			}
		},
		{
			"doubleSided":true,
			"name":"Planks_MAT",
			"normalTexture":{
				"index":3
			},
			"pbrMetallicRoughness":{
				"baseColorTexture":{
					"index":4
				},
				"metallicRoughnessTexture":{
					"index":5
				}
			}
		}
	],
	"meshes":[
		{
			"name":"Fence1_Large_Left_Frames_MAT_0.001",
			"primitives":[
				{
					"attributes":{
						"POSITION":0,
						"NORMAL":1,
						"TEXCOORD_0":2,
						"TEXCOORD_1":3,
						"TEXCOORD_2":4
					},
					"indices":5,
					"material":0
				}
			]
		},
		{
			"name":"Fence1_Large_Left_Planks_MAT_0.002",
			"primitives":[
				{
					"attributes":{
						"POSITION":6,
						"NORMAL":7,
						"TEXCOORD_0":8,
						"TEXCOORD_1":9,
						"TEXCOORD_2":10
					},
					"indices":11,
					"material":1
				}
			]
		}
	],
	"textures":[
		{
			"sampler":0,
			"source":0
		},
		{
			"sampler":0,
			"source":1
		},
		{
			"sampler":0,
			"source":2
		},
		{
			"sampler":0,
			"source":3
		},
		{
			"sampler":0,
			"source":4
		},
		{
			"sampler":0,
			"source":5
		}
	],
	"images":[
		{
			"mimeType":"image/png",
			"name":"Frames_MAT_normal",
			"uri":"Textures/Frames_MAT_normal.png"
		},
		{
			"mimeType":"image/png",
			"name":"Frames_MAT_baseColor",
			"uri":"Textures/Frames_MAT_baseColor.png"
		},
		{
			"mimeType":"image/png",
			"name":"Frames_MAT_metallicRoughness",
			"uri":"Textures/Frames_MAT_metallicRoughness.png"
		},
		{
			"mimeType":"image/png",
			"name":"Planks_MAT_normal",
			"uri":"Textures/Planks_MAT_normal.png"
		},
		{
			"mimeType":"image/png",
			"name":"Planks_MAT_baseColor",
			"uri":"Textures/Planks_MAT_baseColor.png"
		},
		{
			"mimeType":"image/png",
			"name":"Planks_MAT_metallicRoughness",
			"uri":"Textures/Planks_MAT_metallicRoughness.png"
		}
	],
	"accessors":[
		{
			"bufferView":0,
			"componentType":5126,
			"count":292,
			"max":[
				0.9151034355163574,
				0.0692167803645134,
				0.954429030418396
			],
			"min":[
				-0.9157078266143799,
				-0.0692167803645134,
				0
			],
			"type":"VEC3"
		},
		{
			"bufferView":1,
			"componentType":5126,
			"count":292,
			"type":"VEC3"
		},
		{
			"bufferView":2,
			"componentType":5126,
			"count":292,
			"type":"VEC2"
		},
		{
			"bufferView":3,
			"componentType":5126,
			"count":292,
			"type":"VEC2"
		},
		{
			"bufferView":4,
			"componentType":5126,
			"count":292,
			"type":"VEC2"
		},
		{
			"bufferView":5,
			"componentType":5123,
			"count":468,
			"type":"SCALAR"
		},
		{
			"bufferView":6,
			"componentType":5126,
			"count":440,
			"max":[
				0.8716340065002441,
				0.026744745671749115,
				1.126675009727478
			],
			"min":[
				-0.8636806011199951,
				-0.026745058596134186,
				0.0275918859988451
			],
			"type":"VEC3"
		},
		{
			"bufferView":7,
			"componentType":5126,
			"count":440,
			"type":"VEC3"
		},
		{
			"bufferView":8,
			"componentType":5126,
			"count":440,
			"type":"VEC2"
		},
		{
			"bufferView":9,
			"componentType":5126,
			"count":440,
			"type":"VEC2"
		},
		{
			"bufferView":10,
			"componentType":5126,
			"count":440,
			"type":"VEC2"
		},
		{
			"bufferView":11,
			"componentType":5123,
			"count":660,
			"type":"SCALAR"
		}
	],
	"bufferViews":[
		{
			"buffer":0,
			"byteLength":3504,
			"byteOffset":0,
			"target":34962
		},
		{
			"buffer":0,
			"byteLength":3504,
			"byteOffset":3504,
			"target":34962
		},
		{
			"buffer":0,
			"byteLength":2336,
			"byteOffset":7008,
			"target":34962
		},
		{
			"buffer":0,
			"byteLength":2336,
			"byteOffset":9344,
			"target":34962
		},
		{
			"buffer":0,
			"byteLength":2336,
			"byteOffset":11680,
			"target":34962
		},
		{
			"buffer":0,
			"byteLength":936,
			"byteOffset":14016,
			"target":34963
		},
		{
			"buffer":0,
			"byteLength":5280,
			"byteOffset":14952,
			"target":34962
		},
		{
			"buffer":0,
			"byteLength":5280,
			"byteOffset":20232,
			"target":34962
		},
		{
			"buffer":0,
			"byteLength":3520,
			"byteOffset":25512,
			"target":34962
		},
		{
			"buffer":0,
			"byteLength":3520,
			"byteOffset":29032,
			"target":34962
		},
		{
			"buffer":0,
			"byteLength":3520,
			"byteOffset":32552,
			"target":34962
		},
		{
			"buffer":0,
			"byteLength":1320,
			"byteOffset":36072,
			"target":34963
		}
	],
	"samplers":[
		{
			"magFilter":9729,
			"minFilter":9987
		}
	],
	"buffers":[
		{
			"byteLength":37392,
			"uri":"Brown%20Panel.bin"
		}
	]
}
