{
	"asset":{
		"generator":"Khronos glTF Blender I/O v4.1.63",
		"version":"2.0"
	},
	"scene":0,
	"scenes":[
		{
			"name":"Scene",
			"nodes":[
				0
			]
		}
	],
	"nodes":[
		{
			"mesh":0,
			"name":"Fence_Post1_Frames_MAT_0.001",
			"rotation":[
				-0.7071069478988647,
				0,
				0,
				0.7071066498756409
			],
			"scale":[
				0.9919537305831909,
				0.9919538497924805,
				0.9919538497924805
			],
			"translation":[
				-0.0003533363342285156,
				0,
				2.9087066650390625e-05
			]
		}
	],
	"materials":[
		{
			"doubleSided":true,
			"name":"Frames_MAT",
			"normalTexture":{
				"index":0
			},
			"pbrMetallicRoughness":{
				"baseColorTexture":{
					"index":1
				},
				"metallicRoughnessTexture":{
					"index":2
				}
			}
		}
	],
	"meshes":[
		{
			"name":"Fence_Post1_Frames_MAT_0.002",
			"primitives":[
				{
					"attributes":{
						"POSITION":0,
						"NORMAL":1,
						"TEXCOORD_0":2,
						"TEXCOORD_1":3,
						"TEXCOORD_2":4
					},
					"indices":5,
					"material":0
				}
			]
		}
	],
	"textures":[
		{
			"sampler":0,
			"source":0
		},
		{
			"sampler":0,
			"source":1
		},
		{
			"sampler":0,
			"source":2
		}
	],
	"images":[
		{
			"mimeType":"image/png",
			"name":"Frames_MAT_normal",
			"uri":"Textures/Frames_MAT_normal.png"
		},
		{
			"mimeType":"image/png",
			"name":"Frames_MAT_baseColor",
			"uri":"Textures/Frames_MAT_baseColor.png"
		},
		{
			"mimeType":"image/png",
			"name":"Frames_MAT_metallicRoughness",
			"uri":"Textures/Frames_MAT_metallicRoughness.png"
		}
	],
	"accessors":[
		{
			"bufferView":0,
			"componentType":5126,
			"count":190,
			"max":[
				0.09839087724685669,
				0.09517807513475418,
				1.1967006921768188
			],
			"min":[
				-0.09838959574699402,
				-0.09517807513475418,
				0
			],
			"type":"VEC3"
		},
		{
			"bufferView":1,
			"componentType":5126,
			"count":190,
			"type":"VEC3"
		},
		{
			"bufferView":2,
			"componentType":5126,
			"count":190,
			"type":"VEC2"
		},
		{
			"bufferView":3,
			"componentType":5126,
			"count":190,
			"type":"VEC2"
		},
		{
			"bufferView":4,
			"componentType":5126,
			"count":190,
			"type":"VEC2"
		},
		{
			"bufferView":5,
			"componentType":5123,
			"count":300,
			"type":"SCALAR"
		}
	],
	"bufferViews":[
		{
			"buffer":0,
			"byteLength":2280,
			"byteOffset":0,
			"target":34962
		},
		{
			"buffer":0,
			"byteLength":2280,
			"byteOffset":2280,
			"target":34962
		},
		{
			"buffer":0,
			"byteLength":1520,
			"byteOffset":4560,
			"target":34962
		},
		{
			"buffer":0,
			"byteLength":1520,
			"byteOffset":6080,
			"target":34962
		},
		{
			"buffer":0,
			"byteLength":1520,
			"byteOffset":7600,
			"target":34962
		},
		{
			"buffer":0,
			"byteLength":600,
			"byteOffset":9120,
			"target":34963
		}
	],
	"samplers":[
		{
			"magFilter":9729,
			"minFilter":9987
		}
	],
	"buffers":[
		{
			"byteLength":9720,
			"uri":"Brown%20Post.bin"
		}
	]
}
