{
	"asset":{
		"generator":"Khronos glTF Blender I/O v4.0.44",
		"version":"2.0"
	},
	"scene":0,
	"scenes":[
		{
			"name":"Scene",
			"nodes":[
				4
			]
		}
	],
	"nodes":[
		{
			"mesh":0,
			"name":"SM_Street_Light_M_Street_Light_Pole_0"
		},
		{
			"children":[
				0
			],
			"name":"SM_Street_Light"
		},
		{
			"children":[
				1
			],
			"name":"RootNode"
		},
		{
			"children":[
				2
			],
			"name":"SM Street Light.fbx",
			"rotation":[
				0.70710688829422,
				0,
				0,
				0.7071066498756409
			],
			"scale":[
				0.009999999776482582,
				0.010000000707805157,
				0.010000000707805157
			]
		},
		{
			"children":[
				3
			],
			"name":"Sketchfab_model",
			"rotation":[
				-0.70710688829422,
				0,
				0,
				0.7071066498756409
			]
		}
	],
	"materials":[
		{
			"doubleSided":true,
			"name":"M_Street_Light_Pole",
			"normalTexture":{
				"index":0
			},
			"pbrMetallicRoughness":{
				"baseColorTexture":{
					"index":1
				},
				"metallicRoughnessTexture":{
					"index":2
				}
			}
		}
	],
	"meshes":[
		{
			"name":"SM_Street_Light_M_Street_Light_Pole_0",
			"primitives":[
				{
					"attributes":{
						"POSITION":0,
						"NORMAL":1,
						"TEXCOORD_0":2
					},
					"indices":3,
					"material":0
				}
			]
		}
	],
	"textures":[
		{
			"sampler":0,
			"source":0
		},
		{
			"sampler":0,
			"source":1
		},
		{
			"sampler":0,
			"source":2
		}
	],
	"images":[
		{
			"mimeType":"image/png",
			"name":"M_Street_Light_Pole_normal",
			"uri":"M_Street_Light_Pole_normal.png"
		},
		{
			"mimeType":"image/png",
			"name":"M_Street_Light_Pole_baseColor",
			"uri":"M_Street_Light_Pole_baseColor.png"
		},
		{
			"mimeType":"image/png",
			"name":"M_Street_Light_Pole_metallicRoughness",
			"uri":"M_Street_Light_Pole_metallicRoughness.png"
		}
	],
	"accessors":[
		{
			"bufferView":0,
			"componentType":5126,
			"count":1634,
			"max":[
				20.52414321899414,
				299.1690979003906,
				21.709091186523438
			],
			"min":[
				-21.80422592163086,
				2.5272369384765625e-05,
				-21.707969665527344
			],
			"type":"VEC3"
		},
		{
			"bufferView":1,
			"componentType":5126,
			"count":1634,
			"type":"VEC3"
		},
		{
			"bufferView":2,
			"componentType":5126,
			"count":1634,
			"type":"VEC2"
		},
		{
			"bufferView":3,
			"componentType":5123,
			"count":6600,
			"type":"SCALAR"
		}
	],
	"bufferViews":[
		{
			"buffer":0,
			"byteLength":19608,
			"byteOffset":0,
			"target":34962
		},
		{
			"buffer":0,
			"byteLength":19608,
			"byteOffset":19608,
			"target":34962
		},
		{
			"buffer":0,
			"byteLength":13072,
			"byteOffset":39216,
			"target":34962
		},
		{
			"buffer":0,
			"byteLength":13200,
			"byteOffset":52288,
			"target":34963
		}
	],
	"samplers":[
		{
			"magFilter":9729,
			"minFilter":9987
		}
	],
	"buffers":[
		{
			"byteLength":65488,
			"uri":"Street%20light.bin"
		}
	]
}
