{
    "asset" : {
        "generator" : "Khronos glTF Blender I/O v3.4.49",
        "version" : "2.0"
    },
    "scene" : 0,
    "scenes" : [
        {
            "name" : "Scene",
            "nodes" : [
                0,
                1
            ]
        }
    ],
    "nodes" : [
        {
            "mesh" : 0,
            "name" : "defaultMaterial.255",
            "translation" : [
                0.06922077387571335,
                0.04930257797241211,
                0
            ]
        },
        {
            "mesh" : 1,
            "name" : "defaultMaterial.663",
            "rotation" : [
                0,
                0.7071066498756409,
                0,
                0.70710688829422
            ],
            "translation" : [
                0,
                -0.004190719220787287,
                0.0007395386346615851
            ]
        }
    ],
    "materials" : [
        {
            "doubleSided" : true,
            "name" : "M_Ferret_Scout_Car_Wheels",
            "normalTexture" : {
                "index" : 0
            },
            "occlusionTexture" : {
                "index" : 1
            },
            "pbrMetallicRoughness" : {
                "baseColorTexture" : {
                    "index" : 2
                },
                "metallicRoughnessTexture" : {
                    "index" : 1
                }
            }
        },
        {
            "doubleSided" : true,
            "name" : "M_Ferret_Scout_Car_Tower",
            "normalTexture" : {
                "index" : 3
            },
            "occlusionTexture" : {
                "index" : 4
            },
            "pbrMetallicRoughness" : {
                "baseColorTexture" : {
                    "index" : 5
                },
                "metallicRoughnessTexture" : {
                    "index" : 4
                }
            }
        }
    ],
    "meshes" : [
        {
            "name" : "defaultMaterial.255",
            "primitives" : [
                {
                    "attributes" : {
                        "POSITION" : 0,
                        "TEXCOORD_0" : 1,
                        "NORMAL" : 2
                    },
                    "indices" : 3,
                    "material" : 0
                }
            ]
        },
        {
            "name" : "defaultMaterial.663",
            "primitives" : [
                {
                    "attributes" : {
                        "POSITION" : 4,
                        "TEXCOORD_0" : 5,
                        "NORMAL" : 6
                    },
                    "indices" : 7,
                    "material" : 1
                }
            ]
        }
    ],
    "textures" : [
        {
            "sampler" : 0,
            "source" : 0
        },
        {
            "sampler" : 0,
            "source" : 1
        },
        {
            "sampler" : 0,
            "source" : 2
        },
        {
            "sampler" : 0,
            "source" : 3
        },
        {
            "sampler" : 0,
            "source" : 4
        },
        {
            "sampler" : 0,
            "source" : 5
        }
    ],
    "images" : [
        {
            "mimeType" : "image/png",
            "name" : "M_Ferret_Scout_Car_Wheels_normal",
            "uri" : "M_Ferret_Scout_Car_Wheels_normal.png"
        },
        {
            "mimeType" : "image/png",
            "name" : "M_Ferret_Scout_Car_Wheels_metallicRoughness",
            "uri" : "M_Ferret_Scout_Car_Wheels_metallicRoughness.png"
        },
        {
            "mimeType" : "image/jpeg",
            "name" : "M_Ferret_Scout_Car_Wheels_baseColor",
            "uri" : "M_Ferret_Scout_Car_Wheels_baseColor.jpg"
        },
        {
            "mimeType" : "image/png",
            "name" : "M_Ferret_Scout_Car_Tower_normal",
            "uri" : "M_Ferret_Scout_Car_Tower_normal.png"
        },
        {
            "mimeType" : "image/png",
            "name" : "M_Ferret_Scout_Car_Tower_metallicRoughness",
            "uri" : "M_Ferret_Scout_Car_Tower_metallicRoughness.png"
        },
        {
            "mimeType" : "image/jpeg",
            "name" : "M_Ferret_Scout_Car_Tower_baseColor",
            "uri" : "M_Ferret_Scout_Car_Tower_baseColor.jpg"
        }
    ],
    "accessors" : [
        {
            "bufferView" : 0,
            "componentType" : 5126,
            "count" : 35,
            "max" : [
                -0.06529867649078369,
                -0.04321064054965973,
                0.0048003047704696655
            ],
            "min" : [
                -0.07218563556671143,
                -0.05502164363861084,
                -0.007010713219642639
            ],
            "type" : "VEC3"
        },
        {
            "bufferView" : 1,
            "componentType" : 5126,
            "count" : 35,
            "type" : "VEC2"
        },
        {
            "bufferView" : 2,
            "componentType" : 5126,
            "count" : 35,
            "type" : "VEC3"
        },
        {
            "bufferView" : 3,
            "componentType" : 5123,
            "count" : 72,
            "type" : "SCALAR"
        },
        {
            "bufferView" : 4,
            "componentType" : 5126,
            "count" : 112,
            "max" : [
                0.01263783872127533,
                0.015925168991088867,
                0.27791500091552734
            ],
            "min" : [
                -0.011091761291027069,
                -0.007803797721862793,
                -0.011175990104675293
            ],
            "type" : "VEC3"
        },
        {
            "bufferView" : 5,
            "componentType" : 5126,
            "count" : 112,
            "type" : "VEC2"
        },
        {
            "bufferView" : 6,
            "componentType" : 5126,
            "count" : 112,
            "type" : "VEC3"
        },
        {
            "bufferView" : 7,
            "componentType" : 5123,
            "count" : 216,
            "type" : "SCALAR"
        }
    ],
    "bufferViews" : [
        {
            "buffer" : 0,
            "byteLength" : 420,
            "byteOffset" : 0,
            "target" : 34962
        },
        {
            "buffer" : 0,
            "byteLength" : 280,
            "byteOffset" : 420,
            "target" : 34962
        },
        {
            "buffer" : 0,
            "byteLength" : 420,
            "byteOffset" : 700,
            "target" : 34962
        },
        {
            "buffer" : 0,
            "byteLength" : 144,
            "byteOffset" : 1120,
            "target" : 34963
        },
        {
            "buffer" : 0,
            "byteLength" : 1344,
            "byteOffset" : 1264,
            "target" : 34962
        },
        {
            "buffer" : 0,
            "byteLength" : 896,
            "byteOffset" : 2608,
            "target" : 34962
        },
        {
            "buffer" : 0,
            "byteLength" : 1344,
            "byteOffset" : 3504,
            "target" : 34962
        },
        {
            "buffer" : 0,
            "byteLength" : 432,
            "byteOffset" : 4848,
            "target" : 34963
        }
    ],
    "samplers" : [
        {
            "magFilter" : 9729,
            "minFilter" : 9987
        }
    ],
    "buffers" : [
        {
            "byteLength" : 5280,
            "uri" : "Weapon.bin"
        }
    ]
}
